<svg width="16" height="20" viewBox="0 0 16 20" fill="none" xmlns="http://www.w3.org/2000/svg">
<path d="M9.66683 9.16663H4.66683M6.3335 12.5H4.66683M11.3335 5.83329H4.66683M14.6668 5.66663V14.3333C14.6668 15.7334 14.6668 16.4335 14.3943 16.9683C14.1547 17.4387 13.7722 17.8211 13.3018 18.0608C12.767 18.3333 12.067 18.3333 10.6668 18.3333H5.3335C3.93336 18.3333 3.2333 18.3333 2.69852 18.0608C2.22811 17.8211 1.84566 17.4387 1.60598 16.9683C1.3335 16.4335 1.3335 15.7334 1.3335 14.3333V5.66663C1.3335 4.26649 1.3335 3.56643 1.60598 3.03165C1.84566 2.56124 2.22811 2.17879 2.69852 1.93911C3.2333 1.66663 3.93336 1.66663 5.3335 1.66663H10.6668C12.067 1.66663 12.767 1.66663 13.3018 1.93911C13.7722 2.17879 14.1547 2.56124 14.3943 3.03165C14.6668 3.56643 14.6668 4.26649 14.6668 5.66663Z" stroke="#535353" stroke-width="1.7" stroke-linecap="round" stroke-linejoin="round"/>
</svg>
